<?xml version="1.0" standalone="no"?>
<!DOCTYPE svg PUBLIC "-//W3C//DTD SVG 20010904//EN"
 "http://www.w3.org/TR/2001/REC-SVG-20010904/DTD/svg10.dtd">
<svg version="1.0" xmlns="http://www.w3.org/2000/svg"
 width="960.000000pt" height="960.000000pt" viewBox="0 0 960.000000 960.000000"
 preserveAspectRatio="xMidYMid meet">
<metadata>
Created by potrace 1.14, written by Peter Selinger 2001-2017
</metadata>
<g transform="translate(0.000000,960.000000) scale(0.100000,-0.100000)"
fill="#000000" stroke="none">
<path d="M0 4800 l0 -4800 4800 0 4800 0 0 4800 0 4800 -4800 0 -4800 0 0
-4800z m4634 2283 c69 -221 58 -430 -30 -580 -69 -118 -225 -274 -331 -331
l-57 -30 48 -7 c99 -15 247 17 373 81 95 49 93 48 93 34 0 -5 16 -44 36 -87
39 -82 164 -397 164 -411 0 -16 -221 -527 -233 -539 -7 -7 -68 -29 -137 -48
-68 -20 -130 -41 -139 -48 -23 -19 -98 -201 -221 -532 l-48 -130 -72 -36 c-68
-35 -140 -94 -161 -131 -9 -16 -6 -16 31 -3 22 8 79 20 125 26 83 12 85 11
140 -16 84 -41 178 -133 217 -213 28 -56 33 -77 32 -132 -2 -71 -19 -121 -60
-169 -15 -18 -99 -98 -187 -179 l-161 -147 -115 -3 c-110 -4 -114 -3 -100 15
105 134 265 296 361 366 78 56 95 119 56 197 -28 53 -74 80 -143 81 l-50 1 30
13 c17 8 44 14 60 15 17 0 37 5 45 11 30 21 -151 4 -195 -18 -78 -40 -88 -66
-110 -271 -22 -202 -39 -236 -182 -376 -68 -67 -128 -116 -161 -133 l-53 -26
-112 27 c-62 15 -122 32 -135 37 -28 11 -77 112 -128 265 l-35 106 101 201
c118 235 112 212 175 727 20 168 39 312 42 320 7 24 109 -144 128 -211 9 -33
20 -57 25 -54 16 10 50 135 50 186 0 79 -18 139 -75 252 -29 59 -59 133 -65
164 -19 90 -8 213 28 320 25 74 151 420 193 532 l9 23 21 -26 c26 -34 70 -56
108 -56 22 0 39 11 71 48 90 101 340 448 594 825 55 81 103 147 108 147 4 0
18 -35 32 -77z m421 -558 c310 -50 546 -142 801 -314 583 -390 920 -1051 890
-1746 -11 -251 -59 -461 -165 -709 -119 -281 -342 -576 -580 -768 -85 -69
-273 -194 -341 -227 l-45 -22 45 38 c271 228 487 538 586 843 15 47 32 91 38
98 5 7 40 32 79 54 38 23 75 51 83 62 23 37 55 342 40 399 -3 13 -37 59 -75
101 -60 66 -71 84 -76 124 -42 303 -149 584 -318 836 -69 101 -85 133 -91 175
-4 28 -20 93 -37 143 -75 231 -234 446 -401 542 l-47 28 44 -94 c75 -158 90
-228 90 -408 -1 -149 -2 -159 -33 -249 -43 -123 -87 -195 -167 -270 -115 -108
-267 -161 -458 -161 l-94 0 -45 -47 c-57 -62 -148 -197 -247 -370 -76 -133
-80 -138 -108 -133 -15 3 -70 5 -120 5 -51 -1 -93 1 -93 4 0 17 169 455 217
564 l26 57 71 21 c108 31 190 58 203 67 6 4 36 64 66 132 l54 125 82 6 c45 4
83 8 85 10 6 8 64 157 81 208 9 29 15 67 12 85 -3 17 -44 132 -92 256 -48 124
-103 266 -122 316 l-35 91 48 71 c27 39 51 71 54 72 3 0 46 -7 95 -15z m-2203
-276 c404 -147 508 -190 531 -222 25 -33 26 -91 1 -118 -36 -40 -55 -32 -389
169 -204 124 -405 251 -405 258 0 7 10 4 262 -87z m3166 -1046 c133 -208 220
-441 262 -696 21 -129 29 -144 124 -237 45 -43 46 -46 46 -105 0 -58 -14 -207
-26 -271 -5 -26 -17 -38 -66 -65 -103 -59 -111 -68 -148 -179 -90 -277 -289
-582 -503 -772 l-69 -61 81 107 c177 235 296 505 348 791 22 114 24 398 4 505
-21 117 -58 236 -108 348 l-45 103 17 107 c10 60 19 193 22 305 3 108 7 197 8
197 2 0 25 -35 53 -77z m-1884 -1173 c14 -5 32 -21 42 -35 22 -34 5 -77 -45
-107 -20 -12 -67 -51 -105 -87 -38 -37 -64 -56 -58 -45 9 17 31 164 32 209 0
6 9 25 20 43 16 26 26 32 54 32 19 0 46 -4 60 -10z"/>
<path d="M4386 6629 c-86 -126 -156 -232 -156 -235 0 -10 58 10 113 39 75 39
169 139 191 203 21 60 33 208 18 218 -6 3 -77 -93 -166 -225z"/>
<path d="M4246 5987 c-44 -76 -447 -676 -481 -715 l-38 -43 -22 21 c-12 11
-30 45 -41 76 -24 70 -32 52 -33 -70 -1 -140 41 -206 133 -206 24 0 40 7 53
24 10 13 55 39 101 59 167 71 369 217 403 290 24 53 24 130 0 182 -22 49 -82
104 -123 112 -21 4 -28 10 -24 22 2 9 25 74 51 145 25 71 44 130 42 132 -2 2
-11 -11 -21 -29z m-74 -394 c70 -74 58 -133 -46 -230 -62 -58 -233 -170 -243
-159 -2 2 18 41 45 87 27 46 81 139 121 207 39 67 77 122 85 122 7 0 24 -12
38 -27z"/>
<path d="M3322 3913 c-82 -148 -93 -183 -71 -226 16 -30 28 -37 67 -37 25 0
42 10 77 44 45 45 60 85 53 142 -3 26 -8 31 -66 61 -2 1 3 36 12 79 9 42 15
79 13 81 -2 2 -41 -63 -85 -144z"/>
</g>
</svg>
